<svg version="1.1" id="Layer_1" xmlns="http://www.w3.org/2000/svg" xmlns:xlink="http://www.w3.org/1999/xlink" x="0px" y="0px"
	 width="100%" viewBox="0 0 1600 240" enable-background="new 0 0 1600 240" xml:space="preserve">
<path fill="#FFFFFF" opacity="1.000000" stroke="none" 
	d="
M965.000000,241.000000 
	C643.743652,241.000000 322.487366,241.000000 1.115521,241.000000 
	C1.115521,161.096329 1.115521,81.192451 1.115521,1.000000 
	C187.359070,1.000000 373.718292,1.000000 560.727112,1.436117 
	C561.376709,61.804832 561.376709,121.737427 561.376709,181.744690 
	C565.887512,181.744690 569.798035,181.744690 574.264160,181.744690 
	C574.264160,174.641953 574.264160,167.794601 574.264160,160.309311 
	C601.030518,192.372406 645.726501,189.338257 669.133484,166.874390 
	C693.565674,143.426697 695.020386,103.090393 672.950012,77.291832 
	C651.393982,52.094498 602.149048,45.512875 574.000000,79.808853 
	C574.000000,53.159191 574.000000,27.079596 574.000000,1.000000 
	C916.256897,1.000000 1258.513794,1.000000 1600.885254,1.000000 
	C1600.885254,80.905502 1600.885254,160.811234 1600.885254,241.000000 
	C1392.974243,241.000000 1184.948364,241.000000 976.610718,240.621017 
	C976.817627,238.700821 977.781555,237.161453 977.787964,235.618103 
	C977.884460,212.459930 977.854797,189.301239 977.854797,166.142670 
	C977.854797,164.423248 977.854797,162.703812 977.854797,160.141907 
	C1006.562317,193.648590 1052.143311,188.505325 1074.375854,165.641617 
	C1098.230835,141.109512 1099.106689,101.659157 1075.643555,76.099495 
	C1064.437500,63.891998 1050.336182,57.308197 1033.911255,56.228607 
	C1011.678772,54.767281 992.845337,62.041691 977.720825,80.831421 
	C977.720825,72.276291 977.720825,65.230423 977.720825,58.319141 
	C973.255981,58.319141 969.340637,58.319141 965.145203,58.319141 
	C965.145203,60.455334 965.145203,62.262959 965.145203,64.070587 
	C965.145203,95.392967 965.164001,126.715370 965.139587,158.037735 
	C965.118042,185.691833 965.048401,213.345917 965.000000,241.000000 
M1517.500000,12.999558 
	C1485.015625,12.999558 1452.531372,12.999551 1420.046997,12.999561 
	C1388.561890,12.999571 1357.076782,12.985582 1325.591675,13.007128 
	C1314.377930,13.014801 1308.041260,19.434145 1308.002563,30.726730 
	C1307.986694,35.391132 1308.000000,40.055634 1308.000000,44.720089 
	C1308.000000,57.679050 1308.000000,70.638008 1308.000000,83.533218 
	C1333.024414,86.960838 1347.961182,102.119171 1348.000000,123.748207 
	C1348.039551,145.794464 1333.209595,161.032883 1308.000000,164.463516 
	C1308.000000,179.357971 1307.982300,194.315643 1308.005737,209.273224 
	C1308.023315,220.566315 1314.375977,226.990997 1325.591919,226.992874 
	C1408.552612,227.006653 1491.513306,227.006882 1574.473999,226.992371 
	C1585.444824,226.990448 1591.985474,220.550049 1591.989502,209.707123 
	C1592.011597,149.902130 1592.011719,90.097130 1591.989502,30.292143 
	C1591.985474,19.450104 1585.442505,13.023501 1574.473511,13.007244 
	C1555.815674,12.979590 1537.157837,12.999585 1517.500000,12.999558 
M124.187218,34.666489 
	C122.450775,44.916943 120.714333,55.167393 119.029945,65.110565 
	C106.033783,65.110565 93.916344,65.110565 81.239029,65.110565 
	C84.127884,47.960495 86.951828,31.195719 89.812103,14.215334 
	C81.555725,14.215334 73.788742,14.215334 65.701233,14.215334 
	C62.738068,31.339506 59.802273,48.305496 56.788956,65.719482 
	C43.881638,65.719482 31.495668,65.719482 19.109663,65.719482 
	C19.109663,74.215744 19.109663,82.147148 19.109663,90.708786 
	C30.276690,90.708786 41.178207,90.708786 52.306465,90.708786 
	C52.080471,92.846298 52.005600,94.342628 51.754505,95.808784 
	C48.890903,112.529121 45.846176,129.220825 43.235783,145.980301 
	C42.651882,149.729111 41.208817,150.553848 37.790424,150.482986 
	C28.667402,150.293915 19.537876,150.418640 10.280008,150.418640 
	C10.280008,159.019165 10.280008,167.082657 10.280008,175.716644 
	C19.628313,175.716644 28.703478,175.716644 38.051533,175.716644 
	C35.126122,193.096176 32.302322,209.872070 29.470182,226.697495 
	C37.941299,226.697495 45.700798,226.697495 53.584118,226.697495 
	C56.525261,209.596634 59.418461,192.774536 62.300835,176.015366 
	C75.124016,176.015366 87.481529,176.015366 100.129868,176.015366 
	C97.233353,193.149094 94.416130,209.813828 91.547150,226.784729 
	C99.886139,226.784729 107.653305,226.784729 115.660492,226.784729 
	C118.405838,210.915298 121.262726,195.238953 123.723900,179.500732 
	C124.245613,176.164581 125.506691,175.476410 128.500992,175.528381 
	C137.163589,175.678665 145.830490,175.581299 154.495697,175.581192 
	C158.080032,175.581131 161.664352,175.581177 165.266510,175.581177 
	C165.266510,166.815842 165.266510,158.894669 165.266510,150.380157 
	C153.068008,150.380157 141.166489,150.380157 129.075516,150.380157 
	C129.137497,148.965256 129.087311,148.144913 129.220673,147.355591 
	C132.185165,129.809921 135.229355,112.277359 138.097641,94.716064 
	C138.633499,91.435242 140.022919,90.425446 143.341629,90.499504 
	C153.456985,90.725243 163.580582,90.581390 173.665009,90.581390 
	C173.665009,81.906395 173.665009,73.841972 173.665009,65.123077 
	C163.469742,65.123077 153.608856,65.123077 143.330902,65.123077 
	C146.265915,47.750774 149.080276,31.092722 151.936661,14.185905 
	C143.765442,14.185905 135.976166,14.185905 127.831955,14.185905 
	C126.671928,20.769020 125.521767,27.296183 124.187218,34.666489 
M442.148407,132.499969 
	C442.148407,148.928635 442.148407,165.357285 442.148407,181.656570 
	C446.571808,181.656570 450.316895,181.656570 454.178497,181.656570 
	C454.178497,159.973740 454.112061,138.643570 454.210022,117.314171 
	C454.251312,108.328415 454.218719,99.308723 454.973724,90.368134 
	C455.975922,78.499657 463.507599,70.752670 475.214966,69.139847 
	C479.785889,68.510162 484.547943,68.461960 489.139465,68.944183 
	C501.224396,70.213417 510.255219,79.112236 512.043762,91.158623 
	C512.555176,94.603096 512.780273,98.119942 512.788818,101.604462 
	C512.850098,126.602676 512.821533,151.601120 512.821533,176.599487 
	C512.821533,178.343704 512.821533,180.087936 512.821533,181.784546 
	C517.158203,181.784546 520.767883,181.784546 524.429810,181.784546 
	C524.599304,181.127090 524.821533,180.666885 524.821838,180.206512 
	C524.842102,151.041840 525.258057,121.868927 524.679199,92.715813 
	C524.375183,77.405373 517.001099,65.648117 502.322845,59.588318 
	C492.172333,55.397732 481.613434,55.030033 470.983795,57.603775 
	C461.014099,60.017723 453.760010,66.210617 448.130432,75.254082 
	C440.991333,63.306660 430.607391,57.376907 417.587372,56.273773 
	C404.714478,55.183113 392.932190,57.781528 383.666016,69.616928 
	C383.666016,64.900116 383.666016,61.627396 383.666016,58.280174 
	C379.565033,58.280174 375.827301,58.280174 372.141785,58.280174 
	C372.141785,99.630562 372.141785,140.690186 372.141785,181.638123 
	C376.194672,181.638123 379.917511,181.638123 383.851624,181.638123 
	C383.851624,179.453400 383.848602,177.635361 383.852020,175.817337 
	C383.902832,148.820724 383.763397,121.821884 384.079193,94.828362 
	C384.262115,79.191483 396.523071,68.468170 413.245880,68.538002 
	C429.232574,68.604759 441.613403,79.869659 441.951569,95.007889 
	C442.223175,107.167313 442.097687,119.335609 442.148407,132.499969 
M251.490906,178.991013 
	C282.970459,192.619553 323.079803,181.287140 336.166840,151.233948 
	C332.620850,149.607758 329.071075,147.979828 325.280884,146.241638 
	C317.695679,158.360748 308.342407,167.885132 294.144775,170.714569 
	C280.521454,173.429565 267.087860,173.032593 254.107285,167.069885 
	C234.627945,158.121918 225.757919,134.296509 228.322800,117.478180 
	C266.500244,117.478180 304.749878,117.478180 343.368195,117.478180 
	C343.536377,108.119835 342.021240,99.578140 338.354858,91.446213 
	C320.418549,51.664215 269.669037,48.215431 242.240112,66.486275 
	C204.341949,91.730858 204.913712,156.717743 251.490906,178.991013 
M804.124756,131.269485 
	C809.466125,157.431915 824.515564,175.158478 850.538452,181.874100 
	C875.968323,188.436707 898.284485,181.740601 917.064697,161.180176 
	C917.064697,169.136490 917.064697,175.406158 917.064697,181.661697 
	C921.266357,181.661697 925.155518,181.661697 928.991882,181.661697 
	C928.991882,140.372864 928.991882,99.430405 928.991882,58.263340 
	C924.916504,58.263340 921.026733,58.263340 916.560913,58.263340 
	C916.560913,64.872467 916.560913,71.223831 916.560913,77.575195 
	C916.073975,77.860504 915.587036,78.145813 915.100098,78.431122 
	C914.021423,76.950508 913.122559,75.288239 911.837402,74.016312 
	C889.944214,52.350101 853.625305,49.814346 829.029785,68.384743 
	C808.343933,84.003258 801.055908,105.172684 804.124756,131.269485 
M1122.790039,158.704819 
	C1132.427246,171.387024 1144.851440,179.965012 1160.587646,182.814133 
	C1184.992432,187.232666 1206.254395,181.014191 1224.039795,161.030045 
	C1224.039795,169.088348 1224.039795,175.465179 1224.039795,181.748138 
	C1228.313232,181.748138 1232.080200,181.748138 1235.888550,181.748138 
	C1235.888550,140.428879 1235.888550,99.369972 1235.888550,58.358109 
	C1231.707031,58.358109 1227.822998,58.358109 1223.554688,58.358109 
	C1223.554688,64.980576 1223.554688,71.237099 1223.554688,78.659142 
	C1210.330933,64.373726 1195.105225,56.569817 1176.459229,56.135384 
	C1157.700439,55.698326 1141.498657,61.669384 1128.262573,75.131241 
	C1106.601929,97.161285 1104.117554,132.298782 1122.790039,158.704819 
M784.082458,65.794174 
	C775.868774,59.159718 766.511841,56.250450 755.935547,56.390369 
	C744.288696,56.544445 738.738281,65.290314 731.567261,73.615440 
	C731.567261,67.698067 731.567261,62.943420 731.567261,58.349083 
	C727.415527,58.349083 723.675537,58.349083 720.165649,58.349083 
	C720.165649,99.736778 720.165649,140.764832 720.165649,181.619461 
	C724.237671,181.619461 727.956238,181.619461 731.851868,181.619461 
	C731.851868,179.411102 731.851868,177.592361 731.851868,175.773621 
	C731.851929,151.469650 731.846008,127.165680 731.854492,102.861710 
	C731.858765,90.707146 736.062744,80.306145 745.784790,72.853134 
	C748.713684,70.607826 752.920959,69.432068 756.684753,68.997780 
	C764.654297,68.078217 771.351868,72.088722 778.100403,76.402054 
	C780.298218,72.921547 782.321289,69.717880 784.082458,65.794174 
M1283.106201,127.081238 
	C1283.395142,128.376343 1283.616089,129.691040 1283.983276,130.963516 
	C1287.810547,144.226212 1301.709595,151.861862 1314.995483,148.021530 
	C1328.046753,144.249023 1335.695679,130.593887 1332.111450,117.464958 
	C1328.766602,105.212334 1316.752563,97.302940 1304.336304,99.179390 
	C1291.329712,101.145065 1282.891846,111.853081 1283.106201,127.081238 
z"/>
<path fill="#383838" opacity="1.000000" stroke="none" 
	d="
M965.458069,241.000000 
	C965.048401,213.345917 965.118042,185.691833 965.139587,158.037735 
	C965.164001,126.715370 965.145203,95.392967 965.145203,64.070587 
	C965.145203,62.262959 965.145203,60.455334 965.145203,58.319141 
	C969.340637,58.319141 973.255981,58.319141 977.720825,58.319141 
	C977.720825,65.230423 977.720825,72.276291 977.720825,80.831421 
	C992.845337,62.041691 1011.678772,54.767281 1033.911255,56.228607 
	C1050.336182,57.308197 1064.437500,63.891998 1075.643555,76.099495 
	C1099.106689,101.659157 1098.230835,141.109512 1074.375854,165.641617 
	C1052.143311,188.505325 1006.562317,193.648590 977.854797,160.141907 
	C977.854797,162.703812 977.854797,164.423248 977.854797,166.142670 
	C977.854797,189.301239 977.884460,212.459930 977.787964,235.618103 
	C977.781555,237.161453 976.817627,238.700821 976.149536,240.621017 
	C972.638733,241.000000 969.277405,241.000000 965.458069,241.000000 
M977.915894,130.337143 
	C983.326660,156.200974 1007.630493,174.343307 1033.398804,171.754166 
	C1060.546143,169.026459 1080.147949,147.335754 1080.146484,120.027527 
	C1080.145264,98.492599 1069.650757,82.946289 1051.040283,73.710846 
	C1032.889282,64.703453 1014.382385,66.140488 997.902344,78.537079 
	C981.021423,91.235329 974.454346,108.536690 977.915894,130.337143 
z"/>
<path fill="#393939" opacity="1.000000" stroke="none" 
	d="
M573.536804,1.000000 
	C574.000000,27.079596 574.000000,53.159191 574.000000,79.808853 
	C602.149048,45.512875 651.393982,52.094498 672.950012,77.291832 
	C695.020386,103.090393 693.565674,143.426697 669.133484,166.874390 
	C645.726501,189.338257 601.030518,192.372406 574.264160,160.309311 
	C574.264160,167.794601 574.264160,174.641953 574.264160,181.744690 
	C569.798035,181.744690 565.887512,181.744690 561.376709,181.744690 
	C561.376709,121.737427 561.376709,61.804832 561.188354,1.436117 
	C565.024536,1.000000 569.049072,1.000000 573.536804,1.000000 
M575.072632,103.880211 
	C574.489441,112.271835 572.366577,120.900429 573.614746,129.010193 
	C577.208374,152.358978 597.298462,170.033401 620.380432,171.784561 
	C644.032104,173.578934 665.945618,159.359344 673.642883,137.222778 
	C681.442871,114.790680 672.898193,90.577675 652.747131,76.837830 
	C629.403625,60.921207 589.373352,66.322670 575.072632,103.880211 
z"/>
<path fill="#8001FF" opacity="1.000000" stroke="none" 
	d="
M1518.000000,12.999558 
	C1537.157837,12.999585 1555.815674,12.979590 1574.473511,13.007244 
	C1585.442505,13.023501 1591.985474,19.450104 1591.989502,30.292143 
	C1592.011719,90.097130 1592.011597,149.902130 1591.989502,209.707123 
	C1591.985474,220.550049 1585.444824,226.990448 1574.473999,226.992371 
	C1491.513306,227.006882 1408.552612,227.006653 1325.591919,226.992874 
	C1314.375977,226.990997 1308.023315,220.566315 1308.005737,209.273224 
	C1307.982300,194.315643 1308.000000,179.357971 1308.000000,164.463516 
	C1333.209595,161.032883 1348.039551,145.794464 1348.000000,123.748207 
	C1347.961182,102.119171 1333.024414,86.960838 1308.000000,83.533218 
	C1308.000000,70.638008 1308.000000,57.679050 1308.000000,44.720089 
	C1308.000000,40.055634 1307.986694,35.391132 1308.002563,30.726730 
	C1308.041260,19.434145 1314.377930,13.014801 1325.591675,13.007128 
	C1357.076782,12.985582 1388.561890,12.999571 1420.046997,12.999561 
	C1452.531372,12.999551 1485.015625,12.999558 1518.000000,12.999558 
M1433.170166,145.251724 
	C1433.841797,146.592468 1434.480103,147.951157 1435.189941,149.271347 
	C1449.927734,176.680878 1482.606079,189.959457 1511.526978,180.451874 
	C1542.030396,170.424026 1560.811279,140.108734 1555.496338,108.534691 
	C1549.483398,72.814003 1514.651001,48.918640 1479.023438,56.426064 
	C1438.909058,64.878937 1417.015991,106.717934 1433.170166,145.251724 
M1377.999634,72.501282 
	C1377.999634,109.549339 1377.999634,146.597397 1377.999634,183.694214 
	C1387.940430,183.694214 1397.322632,183.694214 1406.787964,183.694214 
	C1406.787964,140.711548 1406.787964,98.036133 1406.787964,55.303436 
	C1397.064087,55.303436 1387.681885,55.303436 1377.999634,55.303436 
	C1377.999634,60.902691 1377.999634,66.202293 1377.999634,72.501282 
z"/>
<path fill="#8305FF" opacity="1.000000" stroke="none" 
	d="
M124.279411,34.244919 
	C125.521767,27.296183 126.671928,20.769020 127.831955,14.185905 
	C135.976166,14.185905 143.765442,14.185905 151.936661,14.185905 
	C149.080276,31.092722 146.265915,47.750774 143.330902,65.123077 
	C153.608856,65.123077 163.469742,65.123077 173.665009,65.123077 
	C173.665009,73.841972 173.665009,81.906395 173.665009,90.581390 
	C163.580582,90.581390 153.456985,90.725243 143.341629,90.499504 
	C140.022919,90.425446 138.633499,91.435242 138.097641,94.716064 
	C135.229355,112.277359 132.185165,129.809921 129.220673,147.355591 
	C129.087311,148.144913 129.137497,148.965256 129.075516,150.380157 
	C141.166489,150.380157 153.068008,150.380157 165.266510,150.380157 
	C165.266510,158.894669 165.266510,166.815842 165.266510,175.581177 
	C161.664352,175.581177 158.080032,175.581131 154.495697,175.581192 
	C145.830490,175.581299 137.163589,175.678665 128.500992,175.528381 
	C125.506691,175.476410 124.245613,176.164581 123.723900,179.500732 
	C121.262726,195.238953 118.405838,210.915298 115.660492,226.784729 
	C107.653305,226.784729 99.886139,226.784729 91.547150,226.784729 
	C94.416130,209.813828 97.233353,193.149094 100.129868,176.015366 
	C87.481529,176.015366 75.124016,176.015366 62.300835,176.015366 
	C59.418461,192.774536 56.525261,209.596634 53.584118,226.697495 
	C45.700798,226.697495 37.941299,226.697495 29.470182,226.697495 
	C32.302322,209.872070 35.126122,193.096176 38.051533,175.716644 
	C28.703478,175.716644 19.628313,175.716644 10.280008,175.716644 
	C10.280008,167.082657 10.280008,159.019165 10.280008,150.418640 
	C19.537876,150.418640 28.667402,150.293915 37.790424,150.482986 
	C41.208817,150.553848 42.651882,149.729111 43.235783,145.980301 
	C45.846176,129.220825 48.890903,112.529121 51.754505,95.808784 
	C52.005600,94.342628 52.080471,92.846298 52.306465,90.708786 
	C41.178207,90.708786 30.276690,90.708786 19.109663,90.708786 
	C19.109663,82.147148 19.109663,74.215744 19.109663,65.719482 
	C31.495668,65.719482 43.881638,65.719482 56.788956,65.719482 
	C59.802273,48.305496 62.738068,31.339506 65.701233,14.215334 
	C73.788742,14.215334 81.555725,14.215334 89.812103,14.215334 
	C86.951828,31.195719 84.127884,47.960495 81.239029,65.110565 
	C93.916344,65.110565 106.033783,65.110565 119.029945,65.110565 
	C120.714333,55.167393 122.450775,44.916943 124.279411,34.244919 
M106.291946,139.744156 
	C109.059944,123.599342 111.827950,107.454529 114.721130,90.579575 
	C103.035271,90.579575 92.101067,90.746399 81.176910,90.488266 
	C77.399307,90.399002 76.443871,91.960793 75.929932,95.287827 
	C74.231964,106.279778 72.206223,117.220726 70.358231,128.190002 
	C69.135933,135.445343 68.002701,142.715683 66.758301,150.420746 
	C76.735146,150.420746 85.862961,150.420761 94.990776,150.420761 
	C104.847389,150.420761 104.847389,150.420746 106.291946,139.744156 
z"/>
<path fill="#373737" opacity="1.000000" stroke="none" 
	d="
M442.148407,131.999969 
	C442.097687,119.335609 442.223175,107.167313 441.951569,95.007889 
	C441.613403,79.869659 429.232574,68.604759 413.245880,68.538002 
	C396.523071,68.468170 384.262115,79.191483 384.079193,94.828362 
	C383.763397,121.821884 383.902832,148.820724 383.852020,175.817337 
	C383.848602,177.635361 383.851624,179.453400 383.851624,181.638123 
	C379.917511,181.638123 376.194672,181.638123 372.141785,181.638123 
	C372.141785,140.690186 372.141785,99.630562 372.141785,58.280174 
	C375.827301,58.280174 379.565033,58.280174 383.666016,58.280174 
	C383.666016,61.627396 383.666016,64.900116 383.666016,69.616928 
	C392.932190,57.781528 404.714478,55.183113 417.587372,56.273773 
	C430.607391,57.376907 440.991333,63.306660 448.130432,75.254082 
	C453.760010,66.210617 461.014099,60.017723 470.983795,57.603775 
	C481.613434,55.030033 492.172333,55.397732 502.322845,59.588318 
	C517.001099,65.648117 524.375183,77.405373 524.679199,92.715813 
	C525.258057,121.868927 524.842102,151.041840 524.821838,180.206512 
	C524.821533,180.666885 524.599304,181.127090 524.429810,181.784546 
	C520.767883,181.784546 517.158203,181.784546 512.821533,181.784546 
	C512.821533,180.087936 512.821533,178.343704 512.821533,176.599487 
	C512.821533,151.601120 512.850098,126.602676 512.788818,101.604462 
	C512.780273,98.119942 512.555176,94.603096 512.043762,91.158623 
	C510.255219,79.112236 501.224396,70.213417 489.139465,68.944183 
	C484.547943,68.461960 479.785889,68.510162 475.214966,69.139847 
	C463.507599,70.752670 455.975922,78.499657 454.973724,90.368134 
	C454.218719,99.308723 454.251312,108.328415 454.210022,117.314171 
	C454.112061,138.643570 454.178497,159.973740 454.178497,181.656570 
	C450.316895,181.656570 446.571808,181.656570 442.148407,181.656570 
	C442.148407,165.357285 442.148407,148.928635 442.148407,131.999969 
z"/>
<path fill="#393939" opacity="1.000000" stroke="none" 
	d="
M251.136108,178.865677 
	C204.913712,156.717743 204.341949,91.730858 242.240112,66.486275 
	C269.669037,48.215431 320.418549,51.664215 338.354858,91.446213 
	C342.021240,99.578140 343.536377,108.119835 343.368195,117.478180 
	C304.749878,117.478180 266.500244,117.478180 228.322800,117.478180 
	C225.757919,134.296509 234.627945,158.121918 254.107285,167.069885 
	C267.087860,173.032593 280.521454,173.429565 294.144775,170.714569 
	C308.342407,167.885132 317.695679,158.360748 325.280884,146.241638 
	C329.071075,147.979828 332.620850,149.607758 336.166840,151.233948 
	C323.079803,181.287140 282.970459,192.619553 251.136108,178.865677 
M316.938965,82.548592 
	C299.853851,67.449051 280.213989,64.568184 259.146881,71.537743 
	C243.189453,76.816872 234.511368,89.245247 229.461060,105.029617 
	C262.939789,105.029617 295.916748,105.029617 329.186462,105.029617 
	C327.517609,96.109344 323.585205,88.995193 316.938965,82.548592 
z"/>
<path fill="#373737" opacity="1.000000" stroke="none" 
	d="
M804.075623,130.836731 
	C801.055908,105.172684 808.343933,84.003258 829.029785,68.384743 
	C853.625305,49.814346 889.944214,52.350101 911.837402,74.016312 
	C913.122559,75.288239 914.021423,76.950508 915.100098,78.431122 
	C915.587036,78.145813 916.073975,77.860504 916.560913,77.575195 
	C916.560913,71.223831 916.560913,64.872467 916.560913,58.263340 
	C921.026733,58.263340 924.916504,58.263340 928.991882,58.263340 
	C928.991882,99.430405 928.991882,140.372864 928.991882,181.661697 
	C925.155518,181.661697 921.266357,181.661697 917.064697,181.661697 
	C917.064697,175.406158 917.064697,169.136490 917.064697,161.180176 
	C898.284485,181.740601 875.968323,188.436707 850.538452,181.874100 
	C824.515564,175.158478 809.466125,157.431915 804.075623,130.836731 
M872.312378,68.688316 
	C870.817383,68.636482 869.322510,68.542595 867.827393,68.539108 
	C843.964355,68.483475 823.596558,83.678780 817.398376,106.148659 
	C811.156799,128.775528 820.901978,153.156921 841.571045,164.914413 
	C858.446960,174.514206 876.071472,174.829514 892.890564,165.126968 
	C909.761475,155.394547 918.939148,140.385178 918.979675,120.478920 
	C919.033630,93.987991 898.554016,70.903343 872.312378,68.688316 
z"/>
<path fill="#373737" opacity="1.000000" stroke="none" 
	d="
M1122.565186,158.424500 
	C1104.117554,132.298782 1106.601929,97.161285 1128.262573,75.131241 
	C1141.498657,61.669384 1157.700439,55.698326 1176.459229,56.135384 
	C1195.105225,56.569817 1210.330933,64.373726 1223.554688,78.659142 
	C1223.554688,71.237099 1223.554688,64.980576 1223.554688,58.358109 
	C1227.822998,58.358109 1231.707031,58.358109 1235.888550,58.358109 
	C1235.888550,99.369972 1235.888550,140.428879 1235.888550,181.748138 
	C1232.080200,181.748138 1228.313232,181.748138 1224.039795,181.748138 
	C1224.039795,175.465179 1224.039795,169.088348 1224.039795,161.030045 
	C1206.254395,181.014191 1184.992432,187.232666 1160.587646,182.814133 
	C1144.851440,179.965012 1132.427246,171.387024 1122.565186,158.424500 
M1133.185059,151.253265 
	C1148.838867,170.684479 1173.108765,177.212082 1194.916260,167.856522 
	C1215.881348,158.862350 1228.640259,136.459457 1225.786255,113.652977 
	C1223.110107,92.267609 1206.848022,74.525444 1185.290894,69.472084 
	C1164.819092,64.673157 1143.109863,73.572525 1131.030640,91.715157 
	C1119.178467,109.516823 1119.880249,133.053116 1133.185059,151.253265 
z"/>
<path fill="#373737" opacity="1.000000" stroke="none" 
	d="
M784.213379,66.154190 
	C782.321289,69.717880 780.298218,72.921547 778.100403,76.402054 
	C771.351868,72.088722 764.654297,68.078217 756.684753,68.997780 
	C752.920959,69.432068 748.713684,70.607826 745.784790,72.853134 
	C736.062744,80.306145 731.858765,90.707146 731.854492,102.861710 
	C731.846008,127.165680 731.851929,151.469650 731.851868,175.773621 
	C731.851868,177.592361 731.851868,179.411102 731.851868,181.619461 
	C727.956238,181.619461 724.237671,181.619461 720.165649,181.619461 
	C720.165649,140.764832 720.165649,99.736778 720.165649,58.349083 
	C723.675537,58.349083 727.415527,58.349083 731.567261,58.349083 
	C731.567261,62.943420 731.567261,67.698067 731.567261,73.615440 
	C738.738281,65.290314 744.288696,56.544445 755.935547,56.390369 
	C766.511841,56.250450 775.868774,59.159718 784.213379,66.154190 
z"/>
<path fill="#8103FF" opacity="1.000000" stroke="none" 
	d="
M1283.073486,126.642776 
	C1282.891846,111.853081 1291.329712,101.145065 1304.336304,99.179390 
	C1316.752563,97.302940 1328.766602,105.212334 1332.111450,117.464958 
	C1335.695679,130.593887 1328.046753,144.249023 1314.995483,148.021530 
	C1301.709595,151.861862 1287.810547,144.226212 1283.983276,130.963516 
	C1283.616089,129.691040 1283.395142,128.376343 1283.073486,126.642776 
z"/>
<path fill="#FEFEFE" opacity="1.000000" stroke="none" 
	d="
M977.848511,129.909714 
	C974.454346,108.536690 981.021423,91.235329 997.902344,78.537079 
	C1014.382385,66.140488 1032.889282,64.703453 1051.040283,73.710846 
	C1069.650757,82.946289 1080.145264,98.492599 1080.146484,120.027527 
	C1080.147949,147.335754 1060.546143,169.026459 1033.398804,171.754166 
	C1007.630493,174.343307 983.326660,156.200974 977.848511,129.909714 
z"/>
<path fill="#FEFEFE" opacity="1.000000" stroke="none" 
	d="
M575.199951,103.500900 
	C589.373352,66.322670 629.403625,60.921207 652.747131,76.837830 
	C672.898193,90.577675 681.442871,114.790680 673.642883,137.222778 
	C665.945618,159.359344 644.032104,173.578934 620.380432,171.784561 
	C597.298462,170.033401 577.208374,152.358978 573.614746,129.010193 
	C572.366577,120.900429 574.489441,112.271835 575.199951,103.500900 
z"/>
<path fill="#FEFCFF" opacity="1.000000" stroke="none" 
	d="
M1433.044189,144.893890 
	C1417.015991,106.717934 1438.909058,64.878937 1479.023438,56.426064 
	C1514.651001,48.918640 1549.483398,72.814003 1555.496338,108.534691 
	C1560.811279,140.108734 1542.030396,170.424026 1511.526978,180.451874 
	C1482.606079,189.959457 1449.927734,176.680878 1435.189941,149.271347 
	C1434.480103,147.951157 1433.841797,146.592468 1433.044189,144.893890 
M1461.868652,138.509781 
	C1472.184692,153.213791 1489.477173,158.785522 1505.278809,152.496841 
	C1520.573975,146.409637 1530.001099,130.417740 1527.630859,114.579330 
	C1525.370361,99.474121 1515.221558,88.122856 1500.725464,84.486038 
	C1486.885254,81.013779 1471.925171,86.258064 1463.369507,97.581207 
	C1454.385620,109.471138 1453.679077,124.471680 1461.868652,138.509781 
z"/>
<path fill="#FEFEFF" opacity="1.000000" stroke="none" 
	d="
M1377.999634,72.001587 
	C1377.999634,66.202293 1377.999634,60.902691 1377.999634,55.303436 
	C1387.681885,55.303436 1397.064087,55.303436 1406.787964,55.303436 
	C1406.787964,98.036133 1406.787964,140.711548 1406.787964,183.694214 
	C1397.322632,183.694214 1387.940430,183.694214 1377.999634,183.694214 
	C1377.999634,146.597397 1377.999634,109.549339 1377.999634,72.001587 
z"/>
<path fill="#FEFEFF" opacity="1.000000" stroke="none" 
	d="
M106.216171,140.175674 
	C104.847389,150.420746 104.847389,150.420761 94.990776,150.420761 
	C85.862961,150.420761 76.735146,150.420746 66.758301,150.420746 
	C68.002701,142.715683 69.135933,135.445343 70.358231,128.190002 
	C72.206223,117.220726 74.231964,106.279778 75.929932,95.287827 
	C76.443871,91.960793 77.399307,90.399002 81.176910,90.488266 
	C92.101067,90.746399 103.035271,90.579575 114.721130,90.579575 
	C111.827950,107.454529 109.059944,123.599342 106.216171,140.175674 
z"/>
<path fill="#FAFAFA" opacity="1.000000" stroke="none" 
	d="
M317.191895,82.801743 
	C323.585205,88.995193 327.517609,96.109344 329.186462,105.029617 
	C295.916748,105.029617 262.939789,105.029617 229.461060,105.029617 
	C234.511368,89.245247 243.189453,76.816872 259.146881,71.537743 
	C280.213989,64.568184 299.853851,67.449051 317.191895,82.801743 
z"/>
<path fill="#FEFEFE" opacity="1.000000" stroke="none" 
	d="
M872.779541,68.749771 
	C898.554016,70.903343 919.033630,93.987991 918.979675,120.478920 
	C918.939148,140.385178 909.761475,155.394547 892.890564,165.126968 
	C876.071472,174.829514 858.446960,174.514206 841.571045,164.914413 
	C820.901978,153.156921 811.156799,128.775528 817.398376,106.148659 
	C823.596558,83.678780 843.964355,68.483475 867.827393,68.539108 
	C869.322510,68.542595 870.817383,68.636482 872.779541,68.749771 
z"/>
<path fill="#FEFEFE" opacity="1.000000" stroke="none" 
	d="
M1132.986572,150.953308 
	C1119.880249,133.053116 1119.178467,109.516823 1131.030640,91.715157 
	C1143.109863,73.572525 1164.819092,64.673157 1185.290894,69.472084 
	C1206.848022,74.525444 1223.110107,92.267609 1225.786255,113.652977 
	C1228.640259,136.459457 1215.881348,158.862350 1194.916260,167.856522 
	C1173.108765,177.212082 1148.838867,170.684479 1132.986572,150.953308 
z"/>
<path fill="#8102FF" opacity="1.000000" stroke="none" 
	d="
M1461.669678,138.203278 
	C1453.679077,124.471680 1454.385620,109.471138 1463.369507,97.581207 
	C1471.925171,86.258064 1486.885254,81.013779 1500.725464,84.486038 
	C1515.221558,88.122856 1525.370361,99.474121 1527.630859,114.579330 
	C1530.001099,130.417740 1520.573975,146.409637 1505.278809,152.496841 
	C1489.477173,158.785522 1472.184692,153.213791 1461.669678,138.203278 
z"/>
</svg>