<?xml version="1.0" encoding="UTF-8" standalone="no"?><!DOCTYPE svg PUBLIC "-//W3C//DTD SVG 1.1//EN" "http://www.w3.org/Graphics/SVG/1.1/DTD/svg11.dtd"><svg width="100%" height="100%" viewBox="0 0 6667 1000" version="1.1" xmlns="http://www.w3.org/2000/svg" xmlns:xlink="http://www.w3.org/1999/xlink" xml:space="preserve" xmlns:serif="http://www.serif.com/" style="fill-rule:evenodd;clip-rule:evenodd;stroke-linejoin:round;stroke-miterlimit:2;"><path d="M4022.742,1004.167c-1.707,-115.225 -1.417,-230.451 -1.327,-345.676c0.102,-130.51 0.023,-261.02 0.023,-391.53l0,-23.964l52.398,0l0,93.801c63.019,-78.291 141.491,-108.601 234.127,-102.512c68.437,4.498 127.193,31.931 173.885,82.795c97.763,106.499 94.114,270.875 -5.282,373.092c-92.636,95.265 -282.556,116.696 -402.171,-22.915l0,25.003c0,96.494 0.124,192.989 -0.278,289.481c-0.027,6.431 -4.043,12.845 -6.827,20.845c-14.628,1.579 -28.634,1.579 -44.548,1.579m51.908,-461.095c22.545,107.766 123.811,183.359 231.179,172.571c113.114,-11.365 194.788,-101.743 194.782,-215.528c-0.005,-89.729 -43.732,-154.505 -121.276,-192.986c-75.629,-37.531 -152.741,-31.543 -221.408,20.109c-70.337,52.909 -97.7,124.998 -83.277,215.834Z" style="fill:#383838;fill-rule:nonzero;"/><path d="M2389.737,4.167c1.93,108.665 1.93,217.33 1.93,328.37c117.288,-142.9 322.475,-115.476 412.292,-10.488c91.96,107.494 85.899,275.562 -15.902,373.261c-97.529,93.599 -283.762,106.242 -395.289,-27.354l0,89.314l-53.698,0c0,-250.03 0,-499.749 -0.785,-751.286c15.984,-1.817 32.753,-1.817 51.452,-1.817m6.399,428.668c-2.43,34.965 -11.275,70.918 -6.075,104.708c14.973,97.287 98.682,170.93 194.857,178.227c98.549,7.477 189.855,-51.772 221.927,-144.007c32.5,-93.467 -3.103,-194.355 -87.066,-251.604c-97.265,-66.319 -264.057,-43.813 -323.644,112.677Z" style="fill:#393939;fill-rule:nonzero;"/><path d="M6325,54.165c79.824,0 157.565,-0.083 235.306,0.032c45.704,0.068 72.967,26.845 72.983,72.02c0.093,249.187 0.092,498.375 0,747.562c-0.017,45.179 -27.269,72.014 -72.981,72.022c-345.67,0.06 -691.339,0.06 -1037.009,0.002c-46.733,-0.008 -73.203,-26.777 -73.276,-73.832c-0.098,-62.323 -0.024,-124.647 -0.024,-186.707c105.04,-14.294 166.831,-77.788 166.667,-169.647c-0.162,-90.121 -62.398,-153.281 -166.667,-167.562l0,-161.721c0,-19.435 -0.055,-38.871 0.011,-58.306c0.161,-47.052 26.564,-73.8 73.288,-73.832c131.188,-0.09 262.376,-0.031 393.564,-0.032c135.352,-0 270.703,-0 408.138,-0m-353.458,551.051c2.798,5.586 5.458,11.248 8.416,16.748c61.407,114.206 197.567,169.534 318.071,129.919c127.098,-41.783 205.351,-168.096 183.206,-299.655c-25.054,-148.836 -170.189,-248.4 -318.637,-217.119c-167.143,35.22 -258.364,209.549 -191.055,370.107m-229.877,-374.785l0,534.962l119.951,0l0,-534.962l-119.951,0Z" style="fill:#8001ff;fill-rule:nonzero;"/><path d="M517.831,142.687c5.176,-28.953 9.969,-56.15 14.802,-83.579l100.436,0c-11.902,70.445 -23.628,139.854 -35.857,212.238l126.392,0l0,106.076c-42.018,0 -84.2,0.599 -126.347,-0.341c-13.828,-0.309 -19.617,3.899 -21.85,17.569c-11.951,73.172 -24.635,146.224 -36.987,219.331c-0.556,3.289 -0.347,6.707 -0.605,12.602l150.796,0l0,105.004c-15.009,0 -29.944,-0 -44.878,0c-36.105,0 -72.217,0.406 -108.311,-0.22c-12.476,-0.217 -17.731,2.651 -19.905,16.551c-10.255,65.576 -22.159,130.894 -33.598,197.017l-100.472,0c11.954,-70.712 23.693,-140.148 35.761,-211.539l-157.621,0c-12.01,69.83 -24.065,139.922 -36.32,211.176l-100.475,0c11.801,-70.106 23.566,-140.005 35.756,-212.42l-115.715,0l-0,-105.408c38.574,0 76.614,-0.52 114.627,0.268c14.243,0.295 20.256,-3.141 22.689,-18.761c10.877,-69.831 23.563,-139.38 35.495,-209.048c1.046,-6.109 1.358,-12.344 2.3,-21.25l-138.32,0l0,-104.122l156.997,0c12.555,-72.558 24.788,-143.25 37.134,-214.601l100.462,0c-11.918,70.752 -23.684,140.605 -35.721,212.063l157.462,0c7.018,-41.43 14.253,-84.14 21.873,-128.607m-74.948,439.58c11.533,-67.27 23.067,-134.54 35.122,-204.852c-48.691,0 -94.25,0.695 -139.768,-0.38c-15.74,-0.372 -19.721,6.136 -21.862,19.998c-7.075,45.8 -15.515,91.387 -23.215,137.092c-5.093,30.231 -9.815,60.524 -15,92.628c41.57,0 79.603,0 117.635,0c41.069,0 41.069,-0 47.088,-44.486Z" style="fill:#8305ff;fill-rule:nonzero;"/><path d="M1842.285,550c-0.211,-52.768 0.312,-103.469 -0.82,-154.134c-1.409,-63.076 -52.996,-110.013 -119.607,-110.291c-69.678,-0.291 -120.766,44.39 -121.528,109.543c-1.316,112.473 -0.735,224.968 -0.947,337.454c-0.014,7.575 -0.002,15.15 -0.002,24.253l-48.791,0l0,-513.991l48.018,0l0,47.236c38.609,-49.314 87.702,-60.141 141.339,-55.596c54.25,4.596 97.517,29.304 127.263,79.085c23.457,-37.681 53.682,-63.485 95.222,-73.543c44.29,-10.724 88.286,-9.192 130.579,8.269c61.159,25.249 91.885,74.238 93.151,138.031c2.412,121.471 0.679,243.025 0.594,364.545c-0.001,1.918 -0.927,3.836 -1.633,6.575l-48.368,0l0,-21.604c0,-104.16 0.119,-208.32 -0.136,-312.479c-0.036,-14.519 -0.974,-29.172 -3.104,-43.524c-7.452,-50.193 -45.081,-87.272 -95.435,-92.56c-19.131,-2.009 -38.973,-1.808 -58.019,0.815c-48.781,6.72 -80.163,38.999 -84.339,88.451c-3.146,37.252 -3.01,74.835 -3.182,112.275c-0.408,88.872 -0.131,177.748 -0.131,268.093l-50.125,0l0,-206.903Z" style="fill:#373737;fill-rule:nonzero;"/><path d="M1046.4,745.274c-192.593,-92.283 -194.976,-363.062 -37.067,-468.248c114.287,-76.129 325.743,-61.759 400.478,104c15.277,33.883 21.59,69.473 20.889,108.467l-479.356,0c-10.687,70.076 26.271,169.349 107.435,206.632c54.086,24.845 110.059,26.499 166.823,15.186c59.157,-11.789 98.129,-51.474 129.734,-101.971c15.792,7.242 30.583,14.026 45.358,20.801c-54.529,125.222 -221.652,172.44 -354.295,115.132m274.179,-401.321c-71.188,-62.915 -153.021,-74.918 -240.8,-45.879c-66.489,21.996 -102.648,73.781 -123.691,139.549l415.523,0c-6.954,-37.168 -23.339,-66.81 -51.031,-93.671Z" style="fill:#393939;fill-rule:nonzero;"/><path d="M3350.315,545.153c-12.582,-106.934 17.785,-195.139 103.976,-260.217c102.481,-77.377 253.81,-66.811 345.032,23.465c5.355,5.3 9.1,12.226 13.595,18.395c2.029,-1.189 4.058,-2.378 6.087,-3.566l0,-80.466l51.796,0l0,514.16l-49.697,0l0,-85.34c-78.251,85.668 -171.235,113.569 -277.193,86.225c-108.429,-27.982 -171.135,-101.842 -193.595,-212.656m284.32,-258.952c-6.229,-0.216 -12.458,-0.607 -18.687,-0.622c-99.429,-0.232 -184.295,63.082 -210.121,156.706c-26.007,94.279 14.598,195.868 100.719,244.857c70.316,39.999 143.752,41.313 213.831,0.886c70.295,-40.552 108.536,-103.091 108.705,-186.034c0.225,-110.379 -85.107,-206.565 -194.447,-215.794Z" style="fill:#373737;fill-rule:nonzero;"/><path d="M4677.355,660.102c-76.865,-108.857 -66.514,-255.263 23.739,-347.055c55.15,-56.091 122.658,-80.97 200.819,-79.149c77.692,1.81 141.132,34.326 196.231,93.849l0,-84.588l51.391,0l0,514.125l-49.37,0l0,-86.325c-74.106,83.267 -162.697,109.178 -264.384,90.767c-65.568,-11.871 -117.335,-47.613 -158.427,-101.623m44.249,-29.88c65.224,80.963 166.349,108.162 257.213,69.18c87.355,-37.476 140.517,-130.821 128.625,-225.848c-11.151,-89.106 -78.909,-163.031 -168.731,-184.087c-85.299,-19.996 -175.754,17.085 -226.084,92.679c-49.384,74.174 -46.46,172.241 8.977,248.075Z" style="fill:#373737;fill-rule:nonzero;"/><path d="M3267.556,275.642c-7.884,14.849 -16.313,28.197 -25.471,42.699c-28.119,-17.972 -56.025,-34.683 -89.232,-30.851c-15.682,1.81 -33.213,6.709 -45.417,16.064c-40.509,31.054 -58.025,74.392 -58.043,125.036c-0.035,101.267 -0.011,202.533 -0.011,303.8l0,24.358l-48.693,0l0,-513.627l47.507,-0l0,63.61c29.879,-34.688 53.006,-71.129 101.535,-71.771c44.068,-0.583 83.055,11.539 117.824,40.683Z" style="fill:#373737;fill-rule:nonzero;"/><path d="M5346.14,527.678c-0.757,-61.624 34.401,-106.24 88.595,-114.431c51.734,-7.819 101.793,25.137 115.73,76.19c14.934,54.704 -16.936,111.6 -71.317,127.319c-55.358,16.001 -113.271,-15.814 -129.218,-71.075c-1.53,-5.302 -2.451,-10.78 -3.791,-18.003Z" style="fill:#8103ff;fill-rule:nonzero;"/><path d="M5971.017,603.725c-66.784,-159.066 24.437,-333.396 191.58,-368.616c148.448,-31.281 293.583,68.283 318.637,217.119c22.146,131.559 -56.108,257.872 -183.206,299.655c-120.504,39.615 -256.664,-15.712 -318.071,-129.919c-2.958,-5.501 -5.617,-11.162 -8.941,-18.239m120.102,-26.6c42.983,61.267 115.036,84.482 180.876,58.279c63.73,-25.363 103.01,-91.996 93.134,-157.99c-9.419,-62.938 -51.705,-110.235 -112.106,-125.389c-57.668,-14.468 -120.001,7.383 -155.65,54.563c-37.433,49.541 -40.377,112.044 -6.254,170.536Z" style="fill:#fefcff;fill-rule:nonzero;"/><rect x="5741.665" y="230.431" width="119.951" height="534.962" style="fill:#fefeff;fill-rule:nonzero;"/><path d="M6090.29,575.847c-33.294,-57.215 -30.35,-119.717 7.083,-169.259c35.649,-47.18 97.982,-69.031 155.65,-54.563c60.4,15.153 102.687,62.45 112.106,125.389c9.876,65.993 -29.404,132.626 -93.134,157.99c-65.84,26.203 -137.892,2.987 -181.705,-59.557Z" style="fill:#8102ff;fill-rule:nonzero;"/></svg>