<svg xmlns="http://www.w3.org/2000/svg" xmlns:xlink="http://www.w3.org/1999/xlink" width="2048" height="308" viewBox="0 0 2048 308"><path fill="#8100FE" d="M1687 16.252c3 -0.376 9.192 -0.58 12.352 -0.584 66.52 -0.072 133.096 -0.052 199.604 -0.044l74.396 0.012c13.376 0 27.24 -0.26 40.56 0.308 5.044 0.212 11.344 0.636 15.028 4.136 7.9 7.484 7.336 12.888 7.348 23.296 0.116 51.36 0.088 102.756 0.064 154.12l-0.012 49.032c-0.028 20.792 4.48 43.096 -24.372 43.564 -13.44 0.22 -27.008 -0.08 -40.472 -0.188l-192.104 -0.024 -56.756 0.12c-43.724 0.088 -51.62 3.032 -49.664 -46.08 0.424 -10.48 0.052 -23.36 0.052 -34.06 12.736 -1.624 21.952 -3.624 32.384 -12.16a51.12 51.12 0 0 0 18.6 -34.616 51.88 51.88 0 0 0 -11.408 -38.136c-10.7 -12.992 -23.536 -17.336 -39.552 -18.844 0.348 -22.936 -2.02 -53.72 1.536 -76.024 1.08 -6.76 6.656 -10.752 12.416 -13.828"/><path fill="#FEFFFF" d="M1900.376 69.588c45.02 -4.508 85.212 28.332 89.936 73.48 4.708 45.144 -27.816 85.628 -72.796 90.584 -45.3 4.992 -85.988 -27.928 -90.74 -73.392 -4.748 -45.468 28.264 -86.136 73.6 -90.672"/><path fill="#8100FE" d="M1906.06 105.728c25 -1.36 46.48 17.652 48.244 42.712 1.752 25.064 -16.844 46.908 -41.792 49.08a45.84 45.84 0 0 1 -41.84 -19.884 46.12 46.12 0 0 1 -3.256 -46.332 45.88 45.88 0 0 1 38.644 -25.576"/><path fill="#FEFFFF" d="m1762.572 69.26 37.16 0.008c0.932 54.024 0.332 111.284 0.024 165.468l-37.132 0.08z"/><path fill="#8100FE" d="m162.44 16.992 30.808 -0.04c-4.236 20.58 -7.756 45.056 -11.452 66.04 12.78 0.28 26.62 0.032 39.48 0.044l0.016 31.676 -44.912 -0.064c-2.624 22.152 -9.124 54.556 -12.968 77.296l47.16 0.088 -0.064 31.76H157.888a3328 3328 0 0 0 -9.784 58.36 68 68 0 0 1 -1.768 7.344c-5.056 0.916 -24.308 0.452 -30.468 0.42 4.236 -20.232 7.84 -45.416 11.492 -66.104l-48.9 -0.032L67.2 289.92l-30.78 -0.016c4.036 -21.732 7.564 -44.264 11.268 -66.112l-35.904 0.012 0.012 -31.816 41.208 -0.02c5.272 -24.472 8.468 -52.024 13.512 -77.18 -13.68 -0.464 -29.732 -0.084 -43.6 -0.104l0.032 -31.596 48.668 0.012L82.92 16.96l30.664 0.028 -11.212 66.032 48.852 0.048zM83.972 191.928c15.94 0.016 32.536 -0.188 48.42 0.188 4.28 -20.74 10.616 -56.372 13.204 -77.216l-48.524 0.008a4592 4592 0 0 0 -13.1 77.02"/><path fill="#343434" d="M1304.652 71.564c50.78 -6.744 93.876 32.292 92.316 83.756 -1.424 47.096 -38.096 81.196 -84.904 79.192 -28.632 -1.224 -43.208 -11.576 -62.064 -31.588l-0.06 21.304 0.004 82.656 -15.336 -0.036c1.336 -76.012 0.328 -157.16 -0.02 -233.42h15.376l0.088 29.272c16.088 -18.948 30.088 -27.372 54.6 -31.136m18.856 147.568c36.44 -4.48 62.372 -37.732 57.944 -74.292s-37.54 -62.608 -73.984 -58.2c-36.504 4.408 -62.52 37.688 -58.08 74.304 4.432 36.612 37.64 62.676 74.12 58.188"/><path fill="#343434" d="M1491.572 71.568c30.196 -3.948 52.888 7.504 73.52 28.48 0.476 -7.652 0.196 -18.72 0.232 -26.628l15.668 0.036 -0.012 158.396 -15.64 -0.012 -0.156 -26.32c-6 5.92 -10.228 10.5 -17.164 15.352 -26.728 19.388 -68.712 17.832 -94.952 -1.604a80.2 80.2 0 0 1 -31.744 -53.052c-7.012 -47.88 22.26 -87.548 70.248 -94.648m17.944 147.628c36.56 -4.18 62.784 -37.34 58.548 -74.008 -4.248 -36.668 -37.36 -62.912 -73.908 -58.572 -36.416 4.324 -62.476 37.42 -58.252 73.972 4.24 36.556 37.16 62.776 73.612 58.608"/><path fill="#343434" d="M1098.596 71.572c31.124 -3.82 52.32 7.4 73.68 28.48l0.096 -26.632 15.656 0.036 -0.016 158.396 -15.62 -0.012 -0.188 -26.296c-6.076 6.128 -10.488 10.688 -17.62 15.62a74.4 74.4 0 0 1 -31.484 12.412c-22.16 3.28 -45.028 -0.888 -63.248 -14.5a80.16 80.16 0 0 1 -31.512 -53.028c-6.856 -47.76 22.42 -87.592 70.256 -94.476m17.92 147.628c36.564 -4.16 62.82 -37.316 58.584 -73.992s-37.348 -62.936 -73.896 -58.596c-36.42 4.328 -62.48 37.408 -58.26 73.956s37.128 62.776 73.568 58.632"/><path fill="#343434" d="M343.152 71.548q1.82 -0.22 3.64 -0.34c52.608 -3.156 88.384 24.084 91.52 78.112l-148.508 -0.016c-0.4 11.912 1.22 23.312 6.004 34.296a59.32 59.32 0 0 0 33.02 31.944c19.336 7.56 41.88 5.808 60.692 -2.496 11.548 -6.94 18.412 -15.408 25.732 -26.344l14.012 6.664c-23.244 43.052 -81.916 55.12 -120.908 27.652a79.6 79.6 0 0 1 -32.52 -51.588c-8.3 -48.328 17.948 -89.54 67.316 -97.884M291.976 134.396l75.52 0.04 53.452 -0.016c-8.988 -34.02 -39.952 -53.32 -74.452 -47.828 -29.728 3.72 -45.548 19.72 -54.52 47.804"/><path fill="#343434" d="M572.348 95.696c2.624 -3.856 5.104 -7.244 8.288 -10.652 17.868 -19.12 57.56 -18.36 75.744 -0.2 5.72 5.712 11.024 15.736 12.324 23.9 2.344 14.696 1.36 30.688 1.352 45.66l-0.016 77.46 -14.776 -0.028 0.088 -96.6c-0.016 -15.32 0.808 -26.708 -10.44 -38.56 -12.32 -13.88 -43.06 -14.26 -55.664 -0.984 -13.924 14.672 -9.332 57.988 -9.232 77.368l-0.008 58.8 -14.88 -0.02 0.12 -73.428c0.016 -13.78 1.068 -31.068 -1.404 -44.4 -6.672 -35.98 -64.848 -37.236 -72.668 -1.476 -2.84 13 -1.572 33.352 -1.552 47.136l0.02 72.188 -14.736 -0.02 -0.016 -158.408 14.816 -0.028 0.04 14.936c8.78 -10.492 15.08 -13.908 28.132 -16.804 24.724 -1.884 40.488 2.828 54.468 24.16"/><path fill="#343434" d="M961.136 71.532c19.276 -0.356 25.44 1.16 41.72 11.964l-8.272 13.072c-27.808 -19.804 -53.536 -7.464 -57.988 22.88 -3.768 25.68 -1.66 68.068 -1.588 94.748v17.668l-14.776 -0.028 -0.024 -158.412 14.824 -0.004 0.056 21.592c7.096 -11.6 13.42 -18.704 26.048 -23.48"/><path fill="#8100FE" d="M1665.1 126.908c17.116 -4.396 34.52 6.024 38.8 23.22 4.272 17.196 -6.224 34.596 -23.388 38.78 -17.012 4.152 -34.176 -6.264 -38.424 -23.312 -4.24 -17.048 6.04 -34.332 23.012 -38.688"/><path fill="#343434" d="M717.872 0h15.104l0.156 102.608c30.688 -38.936 90.984 -43.32 125.104 -6.208 49.016 53.308 10.536 143.264 -64.328 138.08 -28.7 -1.984 -41.788 -10.872 -60.82 -31.44l-0.04 28.824 -15.2 -0.04zm88.648 219.176c36.368 -4.624 62.172 -37.868 57.732 -74.376s-37.452 -62.552 -73.86 -58.268c-36.652 4.312 -62.824 37.7 -58.356 74.452s37.872 62.848 74.484 58.192"/></svg>