<svg width="294" height="407" xmlns="http://www.w3.org/2000/svg" version="1.1" xml:space="preserve">
 <metadata id="metadata8">image/svg+xml</metadata>

 <g>
  <title>Layer 1</title>
  <g id="svg_1">
   <path fill-rule="evenodd" fill="#0088b7" d="m16.15266,0.33202l261.41492,-0.332c8.88533,-0.01333 16.15467,7.27333 16.15467,16.15467l0,374.30078c0,8.88027 -7.27733,16.14533 -16.15467,16.15787l-261.41492,0.33173c-8.87613,0.01253 -16.15267,-7.2688 -16.15267,-16.1536l0,-374.30612c0,-8.88533 7.26773,-16.14133 16.15267,-16.15333" id="path86"/>
   <path fill-rule="nonzero" fill="#fefefe" d="m190.88492,391.0128l-2.49467,-23.75947c-0.16,-1.832 -0.31867,-3.648 -0.464,-5.46667c-0.15867,-1.81867 -0.296,-3.652 -0.40133,-5.47067c-0.22533,1.72267 -0.56133,3.54133 -0.98533,5.47067c-0.428,1.912 -0.96267,3.96933 -1.58933,6.16533l-6.55867,23.0608l-12.228,0l-6.55733,-23.0608c-0.65333,-2.196 -1.188,-4.25333 -1.59867,-6.16533c-0.416,-1.92933 -0.74667,-3.748 -0.97067,-5.47067c-0.13733,1.84933 -0.26933,3.68267 -0.416,5.484c-0.14533,1.80533 -0.29067,3.62133 -0.45467,5.45333l-2.49067,23.75947l-20.15867,0l9.75867,-59.97946l21.21067,0l4.06667,14.83867c0.12,0.46267 0.32267,1.16133 0.588,2.084c1.71733,6.24933 2.772,11.39733 3.15733,15.43867l0.34933,0c0.32133,-2.53467 0.78533,-5.24667 1.41333,-8.112c0.62533,-2.86667 1.452,-6.08133 2.49467,-9.66267l4.26533,-14.58667l21.15733,0l9.06667,59.97946l-20.16,0zm21.32,-22.56213c3.136,2.05333 8.07333,3.696 10.528,4.64133c2.452,0.94933 4.752,1.43067 6.88,1.43067c1.50133,0 2.68,-0.26533 3.53333,-0.804c0.86667,-0.52933 1.28933,-1.248 1.28933,-2.168c0,-1.59467 -2.14267,-2.804 -6.43867,-3.62933c-1.39067,-0.296 -2.468,-0.508 -3.25067,-0.668c-4.53867,-1.04133 -8.01467,-2.896 -10.42533,-5.54933c-2.412,-2.66 -3.61733,-5.96667 -3.61733,-9.928c0,-6.152 2.34133,-11.156 7.02133,-15.00533c4.68133,-3.856 10.824,-5.684 18.412,-5.79333c4.688,-0.06667 11.764,1.70267 15.14933,2.93467l2.91067,18.31867c-2.10133,-1.45333 -8.38533,-3.656 -10.51467,-4.42933c-2.11067,-0.75867 -4.168,-1.148 -6.16933,-1.148c-1.51733,0 -2.69333,0.24267 -3.532,0.71867c-0.83467,0.48267 -1.24533,1.16267 -1.24533,2.01467c0,1.616 3.03467,3.04267 9.10533,4.25733c0.96267,0.212 1.71333,0.37467 2.23867,0.48133c4.18667,0.87867 7.47733,2.69333 9.888,5.428c2.412,2.73733 3.61733,6.044 3.61733,9.92667c0,6.324 -2.42533,11.49947 -7.28667,15.5124c-4.86667,4.01467 -11.19867,6.0204 -18.98533,6.0204c-3.98267,0 -11.99733,-0.73747 -15.98133,-1.80627l-3.12667,-20.75587zm-176.06533,-5.65733l0,-31.76l20.96667,0l0,31.91067c0,3.71333 0.43733,6.272 1.32133,7.66133c0.86933,1.40933 2.36667,2.10267 4.50267,2.10267c2.09333,0 3.59067,-0.72533 4.492,-2.156c0.90933,-1.448 1.36,-3.97467 1.36,-7.608l0,-31.91067l20.96667,0l0,31.76c0,4.15067 -0.27333,7.57867 -0.816,10.28533c-0.54267,2.68933 -1.41333,4.94133 -2.60933,6.75733c-2.34133,3.64707 -5.52667,6.46013 -9.57067,8.39867c-4.04,1.952 -8.65067,2.9192 -13.82267,2.9192c-5.21467,0 -9.83867,-0.9672 -13.87867,-2.9192c-4.04133,-1.93853 -7.22533,-4.7516 -9.56533,-8.39867c-1.17067,-1.78933 -2.01467,-4.01467 -2.544,-6.692c-0.53333,-2.66133 -0.80267,-6.116 -0.80267,-10.35067zm58.08666,28.2632l0,-60.0232l44.412,0l-2.584,16.27867l-18.85067,0l0,6.968l17.748,0l-2.44667,15.38133l-15.30133,0l0,21.3952l-22.97733,0" id="path88"/>
   <path fill-rule="evenodd" fill="#fefefe" d="m91.32093,32.36268l8.63333,0l0,243.07199l-8.63333,0l0,-5.21467l-62.512,0.24267c-5.25947,3.03733 -8.82347,6.69333 -8.8496,11.03867c0,0.084 0.01253,0.17333 0.01773,0.25733l71.34386,-6.324l8.63333,0l-77.66773,10.65467c1.4312,1.38267 3.4584,2.68133 5.91307,3.88667l77.38266,-14.54133l0,-243.07199l8.63067,0l0,243.07199l-79.43333,17.26533c1.93333,0.684 3.98267,1.33467 6.108,1.948l78.95333,-19.21333l0,-243.07199l8.63333,0l0,243.07199l-78.244,21.612c2.584,0.592 5.18133,1.13867 7.72,1.63333l77.21866,-23.24533l0,-247.36799l5.28933,0l0,247.36799l-71.05333,25.276c5.696,0.91467 10.24533,1.50133 12.392,1.772c19.12533,2.39333 41.35066,3.76133 65.06533,3.76133c29.508,0 56.71866,-2.11867 78.508,-5.692l1.228,-0.20267l-69.38533,-24.91467l0,-255.86932l5.468,0l0,255.86932l75.05866,22.848c2.35333,-0.48533 4.87467,-1.03733 7.45067,-1.66l-76.916,-21.188l0,-259.64399l4.584,0l0,259.64399l81.23333,18.79867c2.02667,-0.61467 4.00933,-1.268 5.88267,-1.96133l-80.42133,-16.83733l0,-243.07199l8.63467,0l0,243.07199l78.07066,14.13067c2.31333,-1.19333 4.22933,-2.47333 5.54667,-3.83733l-78.02266,-10.29333l0,-243.07199l8.63333,0l0,220.86666c27.812,2.964 49.87866,8.068 62.5,14.24667c6.86667,3.36 10.93867,7.044 11.61867,10.868l0,0.048l0,6.196l0,0.05333l0,0.14667l-0.00933,0c-0.36133,15.34 -58.27333,27.75333 -129.66266,27.75333c-71.38933,0 -129.30133,-12.41333 -129.66279,-27.75333l-0.0088,0l0,-0.14667l0,-0.05333l0,-6.196l0,-0.048c1.9828,-11.504 31.2036,-20.9 74.13026,-25.264l0,-220.71732zm-54.26666,234.25332l54.26666,1.956l0,-1.056l-47.86933,-3.10933c-2.176,0.676 -4.33067,1.41333 -6.39733,2.20933zm16.55867,-4.96933l37.708,4.796l0,-1.12533l-33.516,-4.616c-1.352,0.292 -2.756,0.60667 -4.192,0.94533zm13.34667,-2.724l24.36133,5.176l0,-1.056l-20.91333,-4.70267c-0.91333,0.14933 -2.08,0.344 -3.448,0.58267zm10.89333,-1.71333l13.468,4.57867l0,-6.17733c-4.64933,0.464 -9.14933,0.99733 -13.468,1.59867zm195.90399,24.17333c-0.08933,-4.23467 -3.24133,-7.844 -8.51867,-10.92l-62.82266,-0.24267l0,5.21467l-0.04,0l71.38133,5.948zm-16.892,-14.776c-2.07867,-0.77733 -4.31333,-1.51067 -6.668,-2.2l-47.78133,3.10133l0,1.05867l54.44933,-1.96zm-17.332,-4.89333c-1.44,-0.31867 -2.91067,-0.61867 -4.40267,-0.91333l-32.71467,4.504l0,1.12533l37.11733,-4.716zm-13.828,-2.584c-1.17867,-0.18533 -2.36667,-0.37067 -3.55867,-0.54667l-19.73067,4.43733l0,1.05467l23.28933,-4.94533zm-10.96,-1.56667c-4.09733,-0.52933 -8.22667,-0.98933 -12.32933,-1.404l0,5.59867l12.32933,-4.19467zm-68.68666,-233.81466l5.55467,0l0,251.68666l-5.55467,0l0,-251.68666" id="path90"/>
  </g>
 </g>
</svg>